<?xml version="1.0" encoding="utf-8"?>
<!-- Generator: Adobe Illustrator 23.1.1, SVG Export Plug-In . SVG Version: 6.00 Build 0)  -->
<svg version="1.1" xmlns="http://www.w3.org/2000/svg" xmlns:xlink="http://www.w3.org/1999/xlink" x="0px" y="0px"
	 viewBox="0 0 792 612" style="enable-background:new 0 0 792 612;" xml:space="preserve">
<style type="text/css">
	.st0{fill:#EBD2B4;stroke:#000000;stroke-width:5;stroke-miterlimit:10;}
	.st1{stroke:#000000;stroke-width:5;stroke-miterlimit:10;}
	.st2{fill:#FFFFFF;stroke:#000000;stroke-width:4;stroke-miterlimit:10;}
	.st3{fill:#FFFFFF;stroke:#000000;stroke-width:5;stroke-miterlimit:10;}
	.st4{fill:#50514F;stroke:#000000;stroke-width:5;stroke-miterlimit:10;}
	.st5{fill:#FFFFFF;stroke:#000000;stroke-width:3;stroke-miterlimit:10;}
	.st6{fill:#CBD4C3;stroke:#000000;stroke-width:5;stroke-miterlimit:10;}
	.st7{fill:#257BA0;stroke:#000000;stroke-width:5;stroke-miterlimit:10;}
	.st8{fill:#FFFFFF;stroke:#D5A129;stroke-width:5;stroke-miterlimit:10;}
	.st9{fill:#FFFFFF;stroke:#B2E1EE;stroke-width:5;stroke-miterlimit:10;}
	.st10{fill:#FFFFFF;stroke:#FFFCFD;stroke-width:5;stroke-miterlimit:10;}
</style>
<g id="Reference">
</g>
<g id="Logo">
	<path class="st0" d="M314.36,251.05l0.08,4.77c0,4.05,0,8.1,0,12.15c0,8.06-0.18,9.62,0,13.77c0.11,2.63,0.16,2.06,0.87,11.34
		c0.61,8.07,0.57,8.44,0.87,11.34c0.49,4.74,0.83,8.06,1.73,12.15c1.7,7.69,4.32,13.33,6.06,17.01c1.92,4.06,3.65,7.73,6.93,12.15
		c1.99,2.69,5.82,7.78,12.12,12.15c1.85,1.29,7.83,5.22,20.78,8.1c9.08,2.02,16.01,2.27,29.43,2.43c5.08,0.06,17.17,0.35,35.49,0
		c15.2-0.29,13.58-0.58,27.7-0.81c18.34-0.3,19.52,0.22,23.37-0.81c14.19-3.78,21.79-17.01,25.97-24.3
		c19.3-33.61,3.21-78.87,0-87.48"/>
	<ellipse class="st1" cx="387.13" cy="298.21" rx="5.17" ry="5.07"/>
	<ellipse class="st1" cx="463.32" cy="298.21" rx="5.17" ry="5.07"/>
	<path class="st2" d="M551.74,278.42"/>
	<path class="st3" d="M393.22,368.41"/>
	<path class="st3" d="M452.21,374.02"/>
	<path class="st4" d="M382.84,369.73c0,0-19.95,51.72,0,80.07h81.35c0,0,24.12-37.5,0-80.07"/>
	<path class="st5" d="M387.9,404.32c0,33.92,0,33.92,0,33.92"/>
	<path class="st5" d="M458.14,404.32c0,30.01,0,30.01,0,30.01"/>
	<path class="st3" d="M315.28,251.55h-0.88c-64.99,0.02-155.79,0.03-155.79,0C158.61,251.51,231.9,251.26,315.28,251.55z"/>
	<path class="st6" d="M493.95,140.14c-8.68-0.61-22.11,1.42-51.58,6.54c-98.97,17.18-107.96,22.06-114.18,31.93
		c-13.53,21.49-4.85,52.19,3.91,72.96c-6.23-0.03-12.55-0.06-18.96-0.08c-9.42-19.04-25.62-58.57-9.23-84.59
		c6.22-9.87,15.2-14.75,114.18-31.93c44.88-7.79,52.55-8.44,62.97-3.45C485.69,133.73,490,136.65,493.95,140.14z"/>
	<path class="st7" d="M525.16,226.95c-1.75,11.11-5.44,20.05-8.65,26.3c-44.83-0.59-109.2-1.29-187.36-1.62
		c-9.03-20.4-17.98-50.57-4.03-71.68c6.41-9.7,15.69-14.49,117.73-31.37c30.39-5.03,44.23-7.02,53.19-6.42
		C518.5,161,529.94,196.67,525.16,226.95z"/>
	<path class="st8" d="M342.97,197.65c29.97,27.28,29.97,27.28,29.97,27.28"/>
	<line class="st9" x1="397.94" y1="187.99" x2="446.18" y2="220.46"/>
	<line class="st10" x1="452.21" y1="183.13" x2="503.28" y2="211.88"/>
</g>
</svg>
