<?xml version="1.0" encoding="utf-8"?>
<!-- Generator: Adobe Illustrator 23.1.1, SVG Export Plug-In . SVG Version: 6.00 Build 0)  -->
<svg version="1.1" xmlns="http://www.w3.org/2000/svg" xmlns:xlink="http://www.w3.org/1999/xlink" x="0px" y="0px"
	 viewBox="0 0 792 612" style="enable-background:new 0 0 792 612;" xml:space="preserve">
<style type="text/css">
	.st0{fill:#EBD2B4;stroke:#000000;stroke-width:5;stroke-miterlimit:10;}
	.st1{stroke:#000000;stroke-width:5;stroke-miterlimit:10;}
	.st2{fill:#FFFFFF;stroke:#000000;stroke-width:4;stroke-miterlimit:10;}
	.st3{fill:#FFFFFF;stroke:#000000;stroke-width:5;stroke-miterlimit:10;}
	.st4{fill:#50514F;stroke:#000000;stroke-width:5;stroke-miterlimit:10;}
	.st5{fill:#FFFFFF;stroke:#000000;stroke-width:3;stroke-miterlimit:10;}
	.st6{fill:#CBD4C3;stroke:#000000;stroke-width:3;stroke-miterlimit:10;}
	.st7{fill:#257BA0;stroke:#000000;stroke-width:5;stroke-miterlimit:10;}
	.st8{fill:#FFFFFF;stroke:#D5A129;stroke-width:5;stroke-miterlimit:10;}
	.st9{fill:#FFFFFF;stroke:#B2E1EE;stroke-width:5;stroke-miterlimit:10;}
	.st10{fill:#FFFFFF;stroke:#FFFCFD;stroke-width:5;stroke-miterlimit:10;}
</style>
<g id="Reference">
</g>
<g id="Logo">
	<path class="st0" d="M373.81,198.57l0.1,5.81c0,4.93,0,9.87,0,14.8c0,9.82-0.22,11.71,0,16.77c0.14,3.2,0.2,2.51,1.05,13.81
		c0.74,9.82,0.69,10.28,1.05,13.81c0.59,5.77,1.01,9.82,2.11,14.8c2.07,9.37,5.26,16.24,7.38,20.72c2.34,4.95,4.45,9.41,8.44,14.8
		c2.42,3.27,7.09,9.47,14.76,14.8c2.26,1.57,9.53,6.36,25.31,9.87c11.06,2.46,19.5,2.77,35.85,2.96c6.19,0.07,20.91,0.43,43.23,0
		c18.52-0.36,16.54-0.71,33.74-0.99c22.33-0.36,23.77,0.26,28.47-0.99c17.28-4.6,26.54-20.72,31.63-29.6
		c23.51-40.94,3.91-96.06,0-106.55"/>
	<ellipse class="st1" cx="462.45" cy="256.02" rx="6.3" ry="6.17"/>
	<ellipse class="st1" cx="555.24" cy="256.02" rx="6.3" ry="6.17"/>
	<path class="st2" d="M662.94,231.92"/>
	<path class="st3" d="M469.86,341.52"/>
	<path class="st3" d="M541.72,348.36"/>
	<path class="st4" d="M457.22,343.13c0,0-24.3,62.99,0,97.53h99.09c0,0,29.37-45.68,0-97.53"/>
	<path class="st5" d="M463.38,385.26c0,41.32,0,41.32,0,41.32"/>
	<path class="st5" d="M548.94,385.26c0,36.55,0,36.55,0,36.55"/>
	<path class="st3" d="M374.94,199.19h-1.08c-79.16,0.02-189.74,0.04-189.74,0C184.12,199.14,273.38,198.84,374.94,199.19z"/>
	<path class="st6" d="M595.62,63.57c-10.58-0.74-26.93,1.73-62.83,7.96C412.26,92.46,401.3,98.4,393.73,110.43
		c-16.48,26.18-5.9,63.57,4.76,88.86c-7.58-0.04-15.29-0.08-23.09-0.1c-11.47-23.19-31.21-71.34-11.24-103.03
		c7.57-12.02,18.52-17.96,139.07-38.89c54.67-9.49,64.01-10.28,76.69-4.2C585.56,55.77,590.81,59.32,595.62,63.57z"/>
	<path class="st7" d="M632.4,167.89c-2.13,13.53-6.63,24.42-10.54,32.03c-54.6-0.72-133.01-1.57-228.2-1.97
		c-11-24.85-21.9-61.59-4.91-87.31c7.81-11.81,19.11-17.65,143.4-38.21c37.01-6.12,53.88-8.55,64.78-7.82
		C624.29,87.56,638.22,131,632.4,167.89z"/>
	<path class="st8" d="M408.67,133.54c36.5,33.23,36.5,33.23,36.5,33.23"/>
	<line class="st9" x1="475.61" y1="121.77" x2="534.38" y2="161.32"/>
	<line class="st10" x1="541.72" y1="115.86" x2="603.92" y2="150.88"/>
</g>
</svg>
