<svg version="1.1" viewBox="0.000000 0.000000 792.000000 612.000000" xmlns="http://www.w3.org/2000/svg" xmlns:xlink="http://www.w3.org/1999/xlink" overflow="hidden"><g id="Reference"></g><g id="Logo"><path d=" M 175.830002 255.130005 L 175.910004 259.899994 C 175.910004 263.950012 175.910004 268.000000 175.910004 272.049988 C 175.910004 280.109985 175.729996 281.670013 175.910004 285.820007 C 176.020004 288.450012 176.070007 287.880005 176.779999 297.160004 C 177.389999 305.230011 177.350006 305.600006 177.649994 308.500000 C 178.139999 313.239990 178.479996 316.559998 179.380005 320.649994 C 181.080002 328.339996 183.699997 333.980011 185.440002 337.660004 C 187.360001 341.720001 189.089996 345.390015 192.369995 349.809998 C 194.360001 352.500000 198.190002 357.589996 204.490005 361.959991 C 206.339996 363.250000 212.320007 367.179993 225.270004 370.059998 C 234.350006 372.079987 241.279999 372.329987 254.699997 372.489990 C 259.779999 372.549988 271.869995 372.839996 290.190002 372.489990 C 305.390015 372.200012 303.769989 371.910004 317.890015 371.679993 C 336.230011 371.380005 337.410004 371.899994 341.260010 370.869995 C 355.450012 367.089996 363.049988 353.859985 367.230011 346.570007 C 386.529999 312.959991 370.440002 267.700012 367.230011 259.089996" stroke="#000000" stroke-width="5.000000" stroke-miterlimit="10.000000" fill="#EBD2B4"/><ellipse cx="248.610000" cy="302.290000" rx="5.170000" ry="5.070000" stroke="#000000" stroke-width="5.000000" stroke-miterlimit="10.000000"/><ellipse cx="324.790000" cy="302.290000" rx="5.170000" ry="5.070000" stroke="#000000" stroke-width="5.000000" stroke-miterlimit="10.000000"/><path d="" stroke="#000000" stroke-width="4.000000" stroke-miterlimit="10.000000" fill="#FFFFFF"/><path d="" stroke="#000000" stroke-width="5.000000" stroke-miterlimit="10.000000" fill="#FFFFFF"/><path d="" stroke="#000000" stroke-width="5.000000" stroke-miterlimit="10.000000" fill="#FFFFFF"/><path d=" M 244.309998 373.809998 C 244.309998 373.809998 224.360001 425.529999 244.309998 453.880005 L 325.660004 453.880005 C 325.660004 453.880005 349.779999 416.380005 325.660004 373.809998" stroke="#000000" stroke-width="5.000000" stroke-miterlimit="10.000000" fill="#50514F"/><path d=" M 249.369995 408.399994 C 249.369995 442.320007 249.369995 442.320007 249.369995 442.320007" stroke="#000000" stroke-width="3.000000" stroke-miterlimit="10.000000" fill="#FFFFFF"/><path d=" M 319.619995 408.399994 C 319.619995 438.410004 319.619995 438.410004 319.619995 438.410004" stroke="#000000" stroke-width="3.000000" stroke-miterlimit="10.000000" fill="#FFFFFF"/><path d=" M 176.750000 255.630005 L 175.869995 255.630005 C 110.879997 255.649994 20.080000 255.660004 20.080000 255.630005 C 20.080000 255.589996 93.370003 255.339996 176.750000 255.630005 Z" stroke="#000000" stroke-width="5.000000" stroke-miterlimit="10.000000" fill="#FFFFFF"/><path d=" M 355.420013 144.220001 C 346.739990 143.610001 333.309998 145.639999 303.839996 150.759995 C 204.869995 167.940002 195.880005 172.820007 189.660004 182.690002 C 176.130005 204.179993 184.809998 234.880005 193.570007 255.649994 C 187.339996 255.619995 181.020004 255.589996 174.610001 255.570007 C 165.190002 236.529999 148.990005 197.000000 165.380005 170.979996 C 171.600006 161.110001 180.580002 156.229996 279.559998 139.050003 C 324.440002 131.259995 332.109985 130.610001 342.529999 135.600006 C 347.160004 137.809998 351.470001 140.729996 355.420013 144.220001 Z" stroke="#000000" stroke-width="5.000000" stroke-miterlimit="10.000000" fill="#CBD4C3"/><path d=" M 386.640015 231.029999 C 384.890015 242.139999 381.200012 251.080002 377.989990 257.329987 C 333.160004 256.739990 268.790009 256.040009 190.630005 255.710007 C 181.600006 235.309998 172.649994 205.139999 186.600006 184.029999 C 193.009995 174.330002 202.289993 169.539993 304.329987 152.660004 C 334.720001 147.630005 348.559998 145.639999 357.519989 146.240005 C 379.980011 165.080002 391.410004 200.750000 386.640015 231.029999 Z" stroke="#000000" stroke-width="5.000000" stroke-miterlimit="10.000000" fill="#257BA0"/><path d=" M 204.449997 201.729996 C 234.419998 229.009995 234.419998 229.009995 234.419998 229.009995" stroke="#D5A129" stroke-width="5.000000" stroke-miterlimit="10.000000" fill="#FFFFFF"/><line x1="259.410000" y1="192.070000" x2="307.660000" y2="224.540000" stroke="#B2E1EE" stroke-width="5.000000" stroke-miterlimit="10.000000" fill="#FFFFFF"/><line x1="313.690000" y1="187.210000" x2="364.760000" y2="215.960000" stroke="#FFFCFD" stroke-width="5.000000" stroke-miterlimit="10.000000" fill="#FFFFFF"/></g></svg>